<?xml version="1.0" encoding="utf-8"?>
<!-- Generator: Adobe Illustrator 21.0.0, SVG Export Plug-In . SVG Version: 6.00 Build 0)  -->
<svg version="1.1" id="Layer_1" xmlns="http://www.w3.org/2000/svg" xmlns:xlink="http://www.w3.org/1999/xlink" x="0px" y="0px"
	 viewBox="0 0 400 400" style="enable-background:new 0 0 400 400;" xml:space="preserve">
<style type="text/css">
	.st0{fill:#FFB81C;}
	.st1{fill:#041E42;}
	.st2{fill:#6F263D;}
</style>
<g>
	<g>
		<path class="st0" d="M222.1,205.7c-0.4,0.7,71.3-41.1,71.3-41.1v-14.3l-3.5-3.6c-19.2-18.3-47.9-18.4-77-10.5V68
			c0-9.8,0.1-19.2-0.6-27.9c-0.8-8.9-2.5-17.5-6.4-25.3L201.1,5l-4.6,10.1c-3.8,8.4-5.7,17.3-6.6,26.3c-0.9,8.9-0.9,18.2-0.9,28
			l-0.7,75.3c-30,12.3-57.5,30.3-72.2,42.4l-16.1,25l20.1-5c-30.8,38.7-19.8,64-18.5,66.6c3.3,9.1,10.7,16.4,22.7,21.2
			c9.1,3.6,19.5,4.1,28.3,3.7c11.1-0.5,22.8-3,34.4-6.7v4.9c-10,5.5-18.1,15.1-22.4,26.6c-1.7,4.5-2.7,9.3-2.9,14.3
			c0,0.8,0,3.6-0.3,7.3c-0.3,3.5-0.9,7.9-2.2,12.4l-0.7,2.5l-2.6,6.2c0.3,1.1,7.4-1.3,10.6-2.5c0.5-0.2,1.2-0.4,2.2-1
			c1.7-1,4-2.5,6.7-5.2c1.7-1.6,3.1-3.4,4.4-5.1c1.2-1.6,2.3-3.2,3.3-4.6c1.4-1.9,2.7-3.9,4-5.7l0.1,16.6l0.1,11v3
			c-0.5,0.7-1.1,1.6-1.7,2.8c-1.5,2.8-5.1,11.6-5.5,16.6c-0.1,1.2,3.4,1,8.5,0.7c0.7-0.1,1.7-0.1,2.9-0.3c2.3-0.3,5.5-0.9,8.7-1.9
			c5.7-1.8,14.9-5.9,16.2-15.1l0.4-3.3l-0.9-0.6c12.2-10.7,15.5-22.4,15.1-32c-0.2-3.3-0.8-6.3-1.5-8.9l4.4,0.7l5.1,0.9l0.9-5.2
			c3-17.7-7-32.4-26.9-35.2v-10.2c19.6-9.3,38-21.5,52.5-34.1l0.7-0.6l5.8-29.4l-11.4,6.3c-18.3,8-35,14.4-47.6,18.9v-66.4
			c3.6-2.1,7.1-3.9,10.5-5.3c9.3-3.9,15.4-5.5,18.2-5.2c-0.8,2.4-2,5.4-3.9,9C237.8,175,222.8,204.5,222.1,205.7 M182.5,200.7
			c1.6-1.8,3.5-3.6,5.4-5.3l-0.2,23.3l0,0l-0.3,32.9c-19.3,5.9-28.6,6.9-35.2,5.3l-0.8-0.2c-1.9-0.7-2.2-2.4-2.2-2.9
			C148.8,240.8,171.2,212.8,182.5,200.7"/>
		<path class="st1" d="M289.2,162.2l-0.1-9.2l-47,28.7c-0.4,0.8-6.5,12.7-7.1,13.2L289.2,162.2z"/>
		<path class="st1" d="M112.8,204.1c5.2-1.3,11-2.7,16.7-4.1c3.3-3.8,6.4-7.2,9.2-10.1c-5.9,1.3-12.3,2.8-18.7,4.3
			C118.8,195.9,113.5,203.2,112.8,204.1"/>
		<path class="st1" d="M208.2,270.1c-2.4,1.2-4.9,2.3-7.4,3.4c-1.6,0.7-3.1,1.4-4.7,2c-1.1,0.4-2.2,0.8-3.3,1.3
			C178,282.5,163,286.3,149,287c-8.6,0.4-18.1-0.1-26.1-3.3c-7.4-3-12.6-6.8-16-11.3c2.6,7.4,8.7,13.8,19.8,18.2
			c8.1,3.2,17.5,3.7,26.1,3.3c12.8-0.6,26.4-3.8,40-8.7c1.1-0.4,2.2-0.8,3.3-1.2c1.6-0.6,3.1-1.3,4.7-1.9c2.5-1,4.9-2.1,7.4-3.2
			c20.1-9.2,39.3-21.7,54.3-34.7l2.8-12.9C250.4,245.5,230,259.6,208.2,270.1"/>
		<path class="st1" d="M208.2,297v-12.5c-2.4,1.1-4.9,2.2-7.4,3.1v12.9c0,3.1-5,3.6-4.8,1.3l0.1-12.4c-1.1,0.4-2.2,0.8-3.3,1.2
			l-0.1,9.7l-0.6,0.4c-9.8,4.6-17.9,13.6-21.9,24.4c-0.1,0.2-0.1,0.3-0.2,0.4c-1.5,4-2.4,8.3-2.6,12.7c-0.1,1.7,0.1,11.2-2.7,20.9
			c0,0,2.6-0.4,7.5-5.2c2.7-2.6,5.2-6.4,7.1-9c4.5-6.2,8.1-12.5,13.4-15.2v5.5c0.1,10.6,0.2,39.3,0.2,39.4c0,0.2-4.5,4.9-5.2,13.1
			c0,0.3,22.2-1.2,23.8-12.8c0,0-4.3-2.8-4.1-2.9c31.3-21.7,13.9-47.8,13.9-47.8c7.6,1.1,11.8,1.8,13.8,2.2
			C237.8,310.9,228.5,297.9,208.2,297 M199.7,372.8c0,1.9-4,1.9-3.9,0.4l0.2-45c0.4-0.4,3.1-1.6,4.2-1.7L199.7,372.8z M205,368.1
			c9.7-23.5,2.6-40.9,2.7-41.2C219.7,328.6,223.7,354.8,205,368.1 M217,359c4.6-9.7,5.9-26.8-4.7-34.4h3.6
			C226.6,333.2,221.9,355.2,217,359 M231.3,322.1c-17.5-4.8-38-0.5-47.3,10.8c-3.8,4.6-7.3,11.5-14.1,18.5
			c1.5-8.5,1.4-11.2,1.6-14.3c1.1-13.5,8.1-24.9,22.2-31.7c0,0.6,0.2,1.1,0.5,1.5c0.6,0.9,1.7,1.6,3.1,1.9c1.3,0.2-0.8-0.4,0,0
			c0.2,0,0.4,0.1,0.7,0.1h0.1c0.2,0,0.4,0.1,0.6,0.1c0.1,0,0.1,0,0.2,0c0.2,0,0.4,0,0.5,0h0.2c0.2,0,0.5,0,0.8,0
			c0.2,0,0.4-0.1,0.7-0.1h0.1c0.2,0,0.4-0.1,0.6-0.1h0.1c0.4-0.1,0.9-0.3,1.3-0.4c1.5-0.5,2.7-1.4,3.2-2.3l0,0
			c0.1-0.2,0.3-0.4,0.4-0.7c5.1,1.1,9.5,3.7,11.4,6.8c-9.1-0.4-22.3,2.6-33.2,15.2c15-11.9,32.2-12,43.3-9.2
			c0.4-6.6-8.7-13.7-13.7-16.4C223.4,304.8,233.1,312.7,231.3,322.1"/>
	</g>
	<path class="st2" d="M208.2,250.8c-2.8,1-5.2,1.8-7.4,2.5c-1.8,0.6-3.3,1.1-4.6,1.5s-2.4,0.8-3.2,1c-1.1,0.3-1.7,0.5-1.7,0.5
		c-82.5,25.7-56.1-27.9-18.4-68.1c2.6-2.7,8.3-8.2,15.1-13.7l0.2-23.7c-27.7,11.7-53.4,28.3-68,40.4c9.4-2.6,19-4.7,28.6-6.9
		c-81.9,78.4-34.5,119.8,44.1,88.3c1.1-0.4,2.2-0.9,3.2-1.4c1.6-0.7,3.1-1.3,4.7-2c2.4-1.1,4.9-2.3,7.4-3.5
		c17.6-8.7,36.2-20.8,55.1-36.7C241.1,238.9,221.4,246.2,208.2,250.8z"/>
	<path class="st2" d="M286.8,150.9c-17.9-17.1-45.6-16.8-73.8-8.7v16.6c21.7-10.5,46.8-13.8,30,19L286.8,150.9z"/>
	<path class="st1" d="M218.2,159.8c-1.7,0.7-3.4,1.5-5.2,2.5v9c3.2-1.8,6.1-3.3,9-4.5c9.7-4.1,18.1-6.7,22.7-5.2
		C245.3,150.6,233.5,153.4,218.2,159.8z"/>
	<g>
		<path class="st1" d="M188,178.9c-4.7,3.8-9,7.8-12.6,11.7c-10.6,11.4-35.1,41.1-34.7,56.7c0.1,4.1,1.5,7,3.9,8.9
			c-0.1-0.6-0.1-1.2-0.2-1.9c-0.4-15.6,24.1-45.3,34.7-56.7c2.6-2.8,5.6-5.6,8.8-8.5L188,178.9z"/>
		<path class="st1" d="M201.8,17.6c-7.1,15.5-6.9,32.9-7,52.2l-0.6,60.5l0,0l-0.6,65.5l0,0l-0.2,18.8l0,0l-0.3,35.7
			c0.9-0.3,2-0.6,3.2-1l0.2-37.2l0,0l0.2-30.1l0.1-9.8v-4l0.1-20.6l0.3-52.8l0.2-40.9c0.8,1.4,3.6,7.1,3.9,27.3l-0.1,65v19.2v3.8
			v9.6v29.6l0,0v0.1l-0.1,39.3c2.2-0.7,4.6-1.6,7.4-2.5v-43l0,0v-6.5v-43.7v-7.5v-1.1v-2.1v-11.2l0,0V68.4
			C208.3,49.2,208.7,31.7,201.8,17.6z"/>
	</g>
</g>
</svg>
