<svg height="30" viewBox="0 0 94 30" width="94" xmlns="http://www.w3.org/2000/svg" xmlns:xlink="http://www.w3.org/1999/xlink"><mask id="a" fill="#fff"><path d="m0 .09145946h13.1964324v29.89881084h-13.1964324z" fill="#fff" fill-rule="evenodd"/></mask><g fill="none" fill-rule="evenodd"><path d="m10.0988108.09145946h-7.00313512c-1.70821622 0-3.09567568 1.38956757-3.09567568 3.09567568v23.71281076c0 1.7087027 1.38745946 3.1000541 3.09567568 3.1000541h6.99810812c1.7078919 0 3.1026486-1.3913514 3.1026486-3.1000541v-23.71281076c0-1.70610811-1.3903783-3.09567568-3.0976216-3.09567568" fill="#fffffe" mask="url(#a)"/><path d="m9.79767568 26.4455676c-.38027027-.3394054-.12632433-.482919-.14140541-.6168649-.25086486-1.0357297-1.07367568-1.6623243-.648-2.0043243-.10508108-.342-.31881081-.7714054-.31086486-.7707568-1.28221622-.7362162-2.37405406-1.9323243-2.55956757-2.1077838-.22491892-.2442162-.60794595-.4897297-.67994595-.6882162-.30810811-.2831351-1.81945946-2.4269189-2.17151351-3.2164865l-.6132973-.0865946c-.27908108-1.14-1.2107027-2.0952973-1.23372973-3.238054-.00859459-.432.19572973-1.3576216.27210811-1.5423243.07443243-.1871352.43135135-.4945946.43135135-.4945946v-.3056757c-1.33783784.0379459-.95318919-.0987568-1.18378378-.618973-.162-.3601621-.04605406-.4392973.01232432-.689027.17951351-.73751352.77610811-1.87475676 1.02275676-2.39140541.0754054-.26075676.3334054-.88945946.3334054-.88945946.9972973-2.03075676 1.36962163-1.88156757 2.55405406-1.99605406l.05837838-.08383783c1.18686486-.05140541.99243243-.14091892 1.15994594-1.28432433-.17302703.07427027-.22427027-.35789189-.22427027-.35789189-.09454054-.65075676.17983784-.52751351.31021622-.54048649.02772973-1.06978378.13751351-1.40643243.90908108-1.70124324h-3.99778378c-1.308 0-2.36740541 1.06021622-2.36740541 2.36724324v23.71151347c0 1.3084865 1.05940541 2.3685406 2.36740541 2.3685406h7.00167566c-.80156756-.432973-.32837837-1.2577297-.30113512-2.8229189" fill="#1d428a"/><path d="m8.36156757 5.57432432.00745946.10118919c.21356756.12437838.32172973.22572973.53691892.36454054.57113513.35918919 1.27475675.99827027 1.18589185 3.20010811.1600541.48016216.230919 1.42378374.3788108 1.72637834.2974055.5896217.4960541.9732973.5828109 1.5303244 0 0 .0859459.8665946.1976756.9291892.5904325.1332973.4198379.1913513.5062703.2925405.0916216.1187027.4324865.1131892.4324865.4308649.1183784.1582702.2057838.3228648.2724324.4939459v-11.45643243c0-1.30556756-1.0618378-2.36562162-2.3636757-2.36562162h-2.26248644c.36356757.12908108.56854054.28151351.68821622.52362162.29237838.02513514.63972973.67994595.09843243 1.64724325.23983784.15956756.0527027.39794594-.11918919.67491892-.05043243.08886486-.1054054.24632432-.26545946.23594594-.20545946.43216216-.45372973.85102703-.64102702.87762162-.05691892.07005406-.09810811.25605406-.01264865.34345946.27535135.12340541.61102702.2927027.77708108.45016216" fill="#c8102e"/><path d="m12.4623243 16.1956216c-.3069729.7788649-1.0712432 1.3294054-1.9639459 1.3294054-1.1683784 0-2.11005408-.9444324-2.11005408-2.1090811 0-.995027.684-1.8296756 1.61237838-2.0524864-.24324324-.6085946-.75664865-1.5950271-.90924324-1.9188649-.14432432-.3214054-.49216216-2.32767568-.56708108-2.72464865-.01702703-.0865946-.91037838.51843243-.912.55589189-.05221622.05059459-.67021622 1.66427026-.69616216 1.75151356-.01248649.0551351-.01394595.2706486-.01394595.2706486s.30389189.0374595.4787027.5675676c.17302703.5294594.70070271 2.4622702.70070271 2.4622702s-.14270271.1477298-.14886487.1388108c.66648649 2.2311892.43345946 3.1913514.73264865 3.8455136.37589189.9222162.47724324.8014054.79962162 1.5763783.23140541.5646487.48940541 2.7861081.57551352 2.8845406.3598378.4561621.5536216.8127567.5536216 1.0699459 0 .2588108-.3048648 1.0240541-.1937838 1.4696757.0674595.2620541.1026487.8498919.2247568.9614595 0 0 .1118919.2205405.0569189.3184864-.0157297.0338919-.0476757.0851352-.0334054.1253514.1984865.7008649.839027 1.8955135-.1983243 2.5211351h.022054c1.1323784-.1751351 1.9898919-1.1464865 1.9898919-2.3391892z" fill="#c8102e"/><g fill="#1d428a"><path d="m20.1335676 29.3072432h-3.3445946v-28.42783779h5.176054l3.463946 23.45108109c-.5176216-5.5743243-1.1944865-14.57237839-1.1944865-19.31010812v-4.14097297h3.3444324v28.42783779h-4.738054l-3.1851892-22.77405401c.2789189 5.09627031.4778919 11.18789191.4778919 14.61210811z"/><path d="m29.4898378 29.3072432v-28.42783779h4.7380541c3.1452973 0 5.0962703 1.7121081 5.0962703 5.69367567v4.18054052c0 2.5877838-.7963784 3.9017838-1.9110811 4.5784865 1.1147027.7167568 1.9110811 1.9908649 1.9110811 4.1807027v4.1406487c0 3.9019459-2.0703244 5.6537837-5.0962703 5.6537837zm3.822-24.8445405v9.3963243h.4780541c1.3537297 0 1.7119459-.5176216 1.7119459-2.0701621v-5.41491895c0-1.314-.3979459-1.91124325-1.5527027-1.91124325zm0 12.5018919v8.7591892h.6372973c1.1944865 0 1.5527027-.6767027 1.5527027-2.0304324v-4.8176757c0-1.3936216-.438-1.9110811-1.7119459-1.9110811z"/><path d="m46.4865405 23.9719459h-2.3888108l-.3184865 5.3352973h-3.8618918l2.7865945-28.42767563h5.414919l2.7076216 28.42767563h-4.0211351zm-2.2295675-3.2249189h2.0305946l-.3186487-5.2157838c-.1193513-2.0703243-.4376757-8.63983779-.6767027-12.1832432h-.1589189l-.5578378 12.1832432z"/><path d="m62.9495676 24.2891351c0 3.8646487-1.3545406 5.2592433-3.7052433 5.2592433-2.55 0-3.785027-1.3945946-3.785027-5.2592433v-4.3031351h2.0318919v4.7412973c0 2.0320541.3585405 2.8688108 1.7531351 2.8688108 1.1951352 0 1.6733514-.8367567 1.6733514-2.8688108v-1.6334595c0-2.1912973-.1992973-3.5062702-2.55-6.7733513-1.8724865-2.6296216-2.9083784-4.2233514-2.9083784-7.88886488v-2.55c0-3.86464865 1.4341622-5.25908108 3.785027-5.25908108 2.5101081 0 3.7052433 1.39443243 3.7052433 5.25908108v4.26324328h-2.0318919v-4.70140544c0-2.03205405-.2789189-2.86864865-1.6733514-2.86864865-1.1952973 0-1.7531351.8365946-1.7531351 2.86864865v2.58972973c0 2.94843241.5181081 3.98432431 2.3108108 6.53416221 2.55 3.5858918 3.1475676 4.7015675 3.1475676 8.0083783z"/><path d="m68.7585405 29.388973c-1.9921621 0-3.028054-.7172433-3.028054-3.1874595v-17.45108107h-1.235027v-1.75313513h1.235027v-4.10367568l1.9125405-.47821621v4.58189189h1.8327568v1.75313513h-1.8327568v17.37145947c0 1.0756216.4381622 1.4742162 1.4343244 1.4742162h.5576756v1.7130811c-.2789189.0398919-.5576756.0797838-.8764865.0797838"/><path d="m72.9820541 10.9816216v14.3434054c0 1.5937298.3186486 2.509946 1.6733513 2.509946s1.6735135-.9162162 1.6735135-2.509946v-14.3434054c0-1.59372971-.3188108-2.51010809-1.6735135-2.51010809s-1.6733513.91637838-1.6733513 2.51010809zm5.2592432 13.8651892c0 3.7054054-1.3945946 4.7015676-3.5858919 4.7015676s-3.5858919-.9961622-3.5858919-4.7015676v-13.3075135c0-3.66551352 1.3945946-4.78102703 3.5858919-4.78102703s3.5858919.996 3.5858919 4.70140543z"/><path d="m82.3769189 29.3091892h-1.9125405v-22.3118919h1.2750811c.2789189.51794594.4383243 1.03589189.5179459 1.51394594.4381622-1.19513513 1.7531351-1.75297297 3.1874595-1.75297297h.0398919v1.95227027h-.1594054c-1.5538379 0-2.9484325.59756757-2.9484325 1.79286486z"/><path d="m88.146 17.7548108h3.3468649v-6.7731892c0-1.59372971-.3186487-2.51010809-1.6733514-2.51010809-1.3548649 0-1.6735135.91637838-1.6735135 2.51010809zm1.6735135 11.7935676c-2.1912973 0-3.586054-.9961622-3.586054-4.7015676v-13.3075135c0-3.66551352 1.3947567-4.78102703 3.586054-4.78102703s3.5858919.996 3.5858919 4.70140543v7.9684865h-5.2594054v5.8968648c0 1.5937298.3186486 2.509946 1.6735135 2.509946 1.3547027 0 1.6733514-.9162162 1.6733514-2.509946v-2.9484324h1.9125405v2.4702162c0 3.7054054-1.3945946 4.7015676-3.5858919 4.7015676z"/></g></g></svg>