<?xml version="1.0" encoding="utf-8"?>
<!-- Generator: Adobe Illustrator 25.0.0, SVG Export Plug-In . SVG Version: 6.00 Build 0)  -->
<svg version="1.1" id="Layer_1" xmlns="http://www.w3.org/2000/svg" xmlns:xlink="http://www.w3.org/1999/xlink" x="0px" y="0px"
	 viewBox="0 0 270 150" style="enable-background:new 0 0 270 150;" xml:space="preserve">
<style type="text/css">
	.st0{fill:#FFFFFF;}
	.st1{fill:#C8102E;}
	.st2{fill:#1D428A;}
</style>
<g>
	<g>
		<path class="st0" d="M49.96,8.01H20.71c-7.13,0-12.93,5.81-12.93,12.94v99.11c0,7.14,5.8,12.96,12.93,12.96h29.23
			c7.13,0,12.96-5.82,12.96-12.96V20.94C62.89,13.81,57.09,8.01,49.96,8.01z"/>
		<path class="st1" d="M42.7,30.92l0.03,0.42c0.89,0.52,1.34,0.94,2.24,1.52c2.38,1.5,5.32,4.17,4.95,13.38
			c0.67,2.01,0.97,5.95,1.58,7.22c1.24,2.47,2.07,4.07,2.43,6.4c0,0,0.36,3.62,0.82,3.88c2.47,0.56,1.76,0.8,2.12,1.22
			c0.38,0.5,1.81,0.47,1.81,1.8c0.49,0.66,0.86,1.35,1.14,2.06V20.95c0-5.46-4.44-9.89-9.87-9.89h-9.45
			c1.52,0.54,2.38,1.18,2.88,2.19c1.22,0.1,2.67,2.84,0.41,6.89c1,0.67,0.22,1.66-0.5,2.82c-0.21,0.37-0.44,1.03-1.11,0.99
			c-0.86,1.81-1.9,3.56-2.68,3.67c-0.24,0.29-0.41,1.07-0.05,1.44C40.61,29.56,42.01,30.27,42.7,30.92"/>
		<path class="st1" d="M59.83,75.32c-1.28,3.25-4.48,5.55-8.2,5.55c-4.88,0-8.81-3.95-8.81-8.81c0-4.16,2.86-7.65,6.73-8.58
			c-1.02-2.54-3.16-6.67-3.8-8.02c-0.6-1.34-2.05-9.73-2.37-11.39c-0.07-0.36-3.8,2.17-3.81,2.33c-0.22,0.21-2.8,6.96-2.91,7.32
			c-0.05,0.23-0.06,1.13-0.06,1.13s1.27,0.16,2,2.37c0.72,2.21,2.93,10.29,2.93,10.29s-0.6,0.62-0.62,0.58
			c2.78,9.32,1.81,13.34,3.06,16.07c1.57,3.86,1.99,3.35,3.34,6.59c0.97,2.36,2.04,11.65,2.4,12.06c1.5,1.91,2.31,3.4,2.31,4.47
			c0,1.08-1.27,4.28-0.81,6.14c0.28,1.09,0.43,3.55,0.94,4.02c0,0,0.47,0.92,0.24,1.33c-0.06,0.14-0.2,0.36-0.14,0.52
			c0.83,2.93,3.5,7.92-0.83,10.54h0.09c4.73-0.73,8.31-4.79,8.31-9.78V75.32z"/>
		<path class="st2" d="M48.7,118.16c-1.59-1.42-0.53-2.02-0.59-2.58c-1.05-4.33-4.48-6.95-2.71-8.38c-0.44-1.43-1.33-3.22-1.3-3.22
			c-5.36-3.08-9.92-8.08-10.69-8.81c-0.94-1.02-2.54-2.05-2.84-2.88c-1.29-1.18-7.6-10.15-9.07-13.44l-2.56-0.36
			c-1.16-4.77-5.06-8.76-5.15-13.53c-0.04-1.81,0.82-5.68,1.14-6.45c0.31-0.78,1.8-2.07,1.8-2.07v-1.28
			c-5.59,0.16-3.98-0.41-4.95-2.59c-0.68-1.51-0.19-1.84,0.05-2.88c0.75-3.08,3.24-7.84,4.27-10c0.31-1.09,1.39-3.72,1.39-3.72
			c4.16-8.49,5.72-7.86,10.67-8.34l0.24-0.35c4.96-0.22,4.14-0.59,4.84-5.37c-0.72,0.31-0.94-1.5-0.94-1.5
			c-0.4-2.72,0.75-2.2,1.29-2.26c0.12-4.47,0.58-5.88,3.8-7.11h-16.7c-5.46,0-9.89,4.43-9.89,9.89v99.11c0,5.47,4.43,9.9,9.89,9.9
			h29.24C46.61,128.15,48.58,124.7,48.7,118.16"/>
		<g>
			<g>
				<path class="st2" d="M125.25,45.09h3.45l-0.49-8.16c-0.28-3.8-0.98-16.04-1.34-22.09c-0.42,6.05-0.91,18.5-1.13,22.09
					L125.25,45.09z M129.05,51.35h-4.15l-0.56,9.92h-6.82l4.85-50.23h9.64l4.78,50.23h-7.11L129.05,51.35z M105.76,39.46v15.48h1.13
					c2.11,0,2.74-1.13,2.74-3.52v-8.58c0-2.39-0.77-3.38-3.03-3.38H105.76z M105.76,17.37v16.6h0.84c2.39,0,3.03-0.85,3.03-3.66
					v-9.57c0-2.32-0.7-3.38-2.74-3.38H105.76z M107.38,61.27h-8.37V11.04h8.37c5.56,0,9.01,3.02,9.01,10.13v7.32
					c0,4.57-1.41,6.9-3.38,8.09c1.97,1.27,3.38,3.52,3.38,7.39v7.32C116.39,58.18,112.73,61.27,107.38,61.27 M82.48,61.27h-5.91
					V11.04h9.15l6.12,41.86c-0.92-9.78-2.11-26.03-2.11-34.55v-7.32h5.91v50.23h-8.37l-5.63-40.1c0.49,9.01,0.84,19.63,0.84,25.68
					V61.27z"/>
			</g>
		</g>
	</g>
	<g>
		<g>
			<g>
				<path class="st2" d="M83.33,93.51v23h-6.77V66.15h13.12v6.35h-6.35v15.52h5.5v5.5H83.33z"/>
				<path class="st2" d="M108.78,75.95v30.75c0,7.69-2.75,10.23-8.68,10.23c-5.93,0-8.75-2.54-8.75-10.23V75.95
					c0-7.69,2.82-10.23,8.75-10.23C105.96,65.72,108.78,68.26,108.78,75.95z M102.01,75.32c0-2.54-0.63-3.24-1.9-3.24
					c-1.34,0-1.98,0.71-1.98,3.24v32.02c0,2.54,0.64,3.24,1.98,3.24c1.27,0,1.9-0.71,1.9-3.24V75.32z"/>
				<path class="st2" d="M129.67,66.15v40.56c0,7.69-2.75,10.23-8.68,10.23c-5.93,0-8.75-2.54-8.75-10.23V66.15h6.77v41.19
					c0,2.54,0.64,3.24,1.98,3.24c1.27,0,1.9-0.71,1.9-3.24V66.15H129.67z"/>
				<path class="st2" d="M139.08,116.51h-5.92V66.15h9.17l6.14,41.97c-0.92-9.8-2.12-26.1-2.12-34.63v-7.34h5.93v50.36h-8.39
					l-5.64-40.21c0.49,9.03,0.85,19.68,0.85,25.75V116.51z"/>
				<path class="st2" d="M155.77,116.51V66.15h7.12c6.98,0,10.3,3.81,10.3,11.36v27.3c0,8.18-4.02,11.71-10.3,11.71H155.77z
					 M162.54,72.49v37.67h1.2c2.19,0,2.68-1.97,2.68-5.22V77.57c0-3.24-0.49-5.08-2.68-5.08H162.54z"/>
				<path class="st2" d="M185.96,106.56h-4.16l-0.56,9.95h-6.84l4.87-50.36h9.66l4.8,50.36h-7.12L185.96,106.56z M182.15,100.29
					h3.46l-0.49-8.18c-0.28-3.81-0.99-16.08-1.34-22.15c-0.42,6.07-0.92,18.55-1.13,22.15L182.15,100.29z"/>
				<path class="st2" d="M192.51,66.15h17.28v6.35h-5.29v44.02h-6.77V72.49h-5.22V66.15z"/>
				<path class="st2" d="M218.75,66.15v50.36h-6.77V66.15H218.75z"/>
				<path class="st2" d="M239.7,75.95v30.75c0,7.69-2.75,10.23-8.68,10.23c-5.93,0-8.75-2.54-8.75-10.23V75.95
					c0-7.69,2.82-10.23,8.75-10.23C236.87,65.72,239.7,68.26,239.7,75.95z M232.92,75.32c0-2.54-0.63-3.24-1.9-3.24
					c-1.34,0-1.97,0.71-1.97,3.24v32.02c0,2.54,0.63,3.24,1.97,3.24c1.27,0,1.9-0.71,1.9-3.24V75.32z"/>
				<path class="st2" d="M249.01,116.51h-5.93V66.15h9.17l6.14,41.97c-0.92-9.8-2.12-26.1-2.12-34.63v-7.34h5.93v50.36h-8.39
					l-5.64-40.21c0.49,9.03,0.85,19.68,0.85,25.75V116.51z"/>
			</g>
			<path class="st1" d="M262.49,130.05H76.26v-6.77h186.22V130.05z"/>
		</g>
	</g>
</g>
</svg>
