<?xml version="1.0" encoding="utf-8"?>
<!-- Generator: Adobe Illustrator 24.0.1, SVG Export Plug-In . SVG Version: 6.00 Build 0)  -->
<svg version="1.1" id="Layer_2_1_" xmlns="http://www.w3.org/2000/svg" xmlns:xlink="http://www.w3.org/1999/xlink" x="0px" y="0px"
	 viewBox="0 0 400 400" style="enable-background:new 0 0 400 400;" xml:space="preserve">
<style type="text/css">
	.st0{fill:#CE1141;}
</style>
<g id="Layer_2_2_">
	<path class="st0" d="M250.5,338.8c0.2,0.3,0.4,0.6,0.6,0.6c0.8,0,2.3-0.3,2.3-0.3l1.5-0.7l4.4-1.7l10.9-5.2l1.9-1l1-0.4l1.2-0.8
		l1.9-1.2l2.3-1.3l3-1.9l5.1-3.6l2.5-2l3.6-2.6l3.3-2.4l1.7-1.1l2.2-2l2.3-2.2l3.6-3.9l4.2-4.1l5-5.6l2.8-3.6l0.9-1.3l2.9-3.6
		l5.6-8.2l1.7-2.6l3.8-7.4l2.2-4l3.6-7.4l2-4.5l2.1-6.9c0,0,2.5-9.2,3.9-13.8c0.2-0.6,0.2-1-0.1-1.5c-0.8-1.1-1.3-2.5-2.1-3.8
		c-0.4-0.6-0.9-1.3-1.3-1.8c-0.4-0.6-1.3-1.7-1.7-2.2c-0.4-0.6-0.9-0.9-1.4-1.2c-1.2-1.1-2.2-2.2-3.2-2.9c-0.6-0.3-0.9-0.6-1.3-0.9
		c-3-2.4-6.1-4.2-9.6-5.8c-1.4-0.6-3-1.2-4.5-1.7c-1.1-0.4-2.8-0.8-3.9-1c-0.6-0.1-1.2-0.1-1.7,0.2c-0.6,0.3-0.6,1.1-0.6,1.8
		c-0.2,1.9-0.3,4-0.4,6c-0.2,2-0.3,3.9-0.6,6c-0.2,1.8-0.2,3.6-0.6,5.3c-0.3,2.3-0.6,4.7-1,7.1c-0.8,4.3-1.8,8.6-2.8,13
		c-0.3,1.2-0.4,2.4-0.9,3.5c-0.8,1.8-1.4,3.8-1.7,5.7c-0.8,4.1-2.3,8.1-3.8,11.9c-1.2,3.2-2.3,6.4-4.1,9.4c-0.1,0.2-0.2,0.4-0.3,0.6
		c-0.9,2-1.7,4-2.6,6.1c-0.6,1.3-1.4,2.5-1.9,3.7c-0.7,1.7-1.7,3.1-2.5,4.6c-1.5,2.3-3.1,4.6-4.4,7.2c-0.9,1.7-1.9,3.3-3.1,5
		c-0.3,0.4-0.6,0.8-0.8,1.2c-0.9,1.3-1.7,2.8-2.8,4c-1.9,2.4-3.9,4.9-6,7.2c-1.2,1.5-2.6,2.8-4,4.2c-1.2,1.3-2.4,2.5-3.6,3.9
		c-0.3,0.3-0.6,0.6-0.9,0.7c-0.7,0.6-1.5,1.2-2.2,1.8c-1.7,1.7-3.2,3.1-5,4.3c-0.8,0.6-1.7,1.1-2.3,1.7
		C255.1,336.1,252.9,337.4,250.5,338.8"/>
	<path class="st0" d="M348.1,221.9c0.1,0,0.1-0.1,0.1-0.3c0-0.4,0.1-1,0.1-1l1.1-9.5l0.6-8.9v-8.8v-1.3l-1-10c0,0-1.2-9-2.1-13.7
		c-0.3-1.7-1.4-2.5-2.8-3.1c-0.4-0.2-0.9-0.4-1.4-0.6c-1-0.3-2.1-0.8-3-1c-2.2-0.6-4.4-1.3-6.7-1.7c-2.8-0.6-5.4-0.7-8.2-1
		c-2.2-0.2-4.5-0.3-6.7-0.3c-1.8,0-2.9,0-4.7,0c-1,0-2,0-2.4,0.6c-0.4,0.6-0.1,1.7,0,2.8c0.3,2.2,0.7,3.3,1.1,5.4
		c1.1,6.4,2.2,12.8,2.5,19.3c0.1,2.9,0.3,5.8,0.4,8.8c0,0.8,0,1.4,0,2.2c0,0.6,0.1,1.1,0.4,1.4c0.3,0.4,0.7,0.6,1.1,0.6
		c0.6,0.2,1.1,0.2,1.7,0.4c0.6,0.2,1.7,0.4,2.3,0.6c2.6,0.8,5.4,1.8,7.9,2.8c1.8,0.7,3.4,1.7,5.2,2.8c0.2,0.1,0.4,0.2,0.6,0.4
		c1,0.7,2,1.5,3,2.2c2.4,1.7,4.9,3.4,6.6,5.8c0.3,0.6,0.7,0.9,1.2,1.3c0.7,0.6,1.9,2.9,2.8,3.9C347.9,221.8,348,221.9,348.1,221.9"
		/>
	<path class="st0" d="M281.1,115.2c0.9,0,1.7-0.1,2.4-0.2c0.6,0,1-0.1,1.2-0.6c0.2-0.6-0.2-1.1-0.3-1.3c-0.2-0.4-1.9-3.5-1.9-3.5
		l-1.7-2.6l-7.1-10.1l-1.5-1.7l-1.3-1.8l-2.3-2.5l-5.7-6.2l-2.4-2.4l-8.8-8.2l-7.2-5.6l-2.6-1.4l-8.5-5.2l-6-3.2l-1.1-0.6l-4.9-1.8
		l-7.1-2.8l-0.6-0.1l-2.3-0.6l-0.6-0.1l-2-0.6l-4.3-0.8l-2-0.1l-3.9-0.7l-4.6-0.3l-1.7-0.2l-2.9-0.1l-4.9,0.1l-4.7,0.6l-3.8,0.1
		l-3.2,0.4l-3.3,0.7l-2.5,0.8l-4.1,0.8h-0.9l-3.9,1.4l-2.2,0.6l-1.4,0.8l-3.3,0.9l-1.7,0.9l-2,0.8l-5,2.1l-6.3,2.4l-2.1,1l-4.4,2.4
		l-3.9,2.5l-3.4,2l-1.3,0.7l-3.9,2.1l-0.6,0.4l-4.4,3.5l-3.8,2.5l-0.7,0.6l-4.2,3.3l-1.5,1.3c0,0-2.2,1.9-2.3,2.2l1.7-0.6
		c0,0,2.9-1.1,2.9-1c0.1,0,0.6,0,0.6,0l4.1-1.7h0.6l4.5-1.8c0,0,2.4-0.8,2.4-0.7s2.4-0.9,2.4-0.9l3.3-1.2l8.2-3.1h0.7l4.2-1.4
		l3.3-1.3l0.6,0.3c0,0,6.3,0.2,6.4,0.2l4,0.3l0.1,0.1l8.3,0.7l0.1-0.1l11.4,0.6l0.1,0.3l4,3.4h0.3l4.1,4l0.4-0.2l5.6,0.2l0.3-0.2
		l14.1,0.8l0.1,0.3l6.3,3.6h0.3l11.1,5.4l0.1,0.6l6.3-2.5l9.3,3.1l1.7,2.5l3.4,0.2l3.3,3.8h0.3l2.6,3v0.2h0.4l7.3,1.7l2.8,4.1
		l6.7,2.4c0,0,7.2,1.9,10.9,2.3C274.6,115.5,278.6,115.3,281.1,115.2"/>
	<path class="st0" d="M344.2,158.1c-0.2-1.1-1-3.2-1-3.2l-0.4-1.2l-0.4-1.4l-1.2-3.6l-1.1-3.1l-3.5-7.7l-1.7-3.9l-2-4.4l-2.4-3.9
		l-0.6-1.1l-1.7-3.2l-1.5-2.4l-0.6-0.8l-9.9-13.7c0,0-1-1.2-1.5-1.7c-0.2-0.3-0.3-0.6-0.6-0.6h-0.1c0,0-3.1,5.1-4.4,6.5
		c-1.3,1.4-3.9,3.9-3.9,3.9s-2.2,1.8-2.6,2.1s-2,1.4-2,1.4l-2.3,1.3c0,0-1.7,0.8-2,0.9c-0.3,0.1-0.6,0.2-0.8,0.6
		c-0.2,0.2-0.2,0.4-0.1,0.8s0.1,0.6,0.3,0.9c0.9,1.9,1.8,3.9,2.8,5.8c1.7,2.8,2.5,6,3.9,8.8c0.4,1,0.9,2,1.2,3
		c0.9,2.6,1.7,5.2,2.5,7.8c0.3,1.2,0.7,2.3,1.1,3.5c0.3,1.2,0.6,2.3,0.9,3.5c0.2,0.8,0.7,1.1,1.5,1.1c0.9,0,1.5,0,2.3-0.1
		c2.8-0.1,5.4-0.2,8.2-0.2c0.8,0,6.2,0.6,6.2,0.6s1.9,0.2,2.9,0.4c2,0.4,4.1,0.8,6.1,1.3c1.7,0.4,3.5,0.9,5.1,1.7
		c0.8,0.4,1.7,0.6,2.5,0.8c0.3,0.1,0.7,0.1,0.8,0.1C344,158.5,344.2,158.2,344.2,158.1"/>
	<path class="st0" d="M308.8,97.5c-0.1-0.4-0.8-1.5-0.8-1.5l-0.6-0.9l-1.5-1.7l-1-1.4l-1.8-1.8c0,0-0.4-0.3-0.6-0.6
		c-3.2-2.6-9.7-7.8-9.7-7.8l-1.8-1.4l-3.3-2.9l-16.8-10l-13.2-6.2l-7.1-2.8c0,0-2.5-0.9-2.6-0.9l-8.6-3l-6.1-1.5l-6-1.3l-0.9-0.1
		l-0.6,0.6l0.2,0.3c0,0,0.6,0.3,0.9,0.4c1.8,0.7,3.8,1.4,5.5,2.1c1.2,0.6,2.3,1.1,3.6,1.5c0.9,0.3,1.7,0.6,2.4,1
		c2.8,1.7,5.6,3.2,8.4,5c1.7,1,3.2,2.2,4.6,3.5c1.1,1,2.2,1.9,3.5,2.8c0.6,0.3,1.1,0.8,1.7,1.3c0.3,0.2,0.6,0.6,0.9,0.7
		c1.7,1.3,3.4,2.5,5,4.1c1.5,1.7,3.2,3.3,4.9,4.9c1.5,1.5,3.1,3,4.4,4.7c1.1,1.4,2.2,2.8,3.5,4.1c2.4,2.4,4.3,5.2,6.5,7.8
		c0.3,0.3,0.4,0.7,0.7,1.1c1.4,2.2,2.8,4.6,4.4,6.6c1.2,1.4,2.3,3,3.1,4.7c0.6,1,1.2,2,1.8,2.9c0.4,0.6,1,0.8,1.3,0.8
		s0.9-0.3,0.9-0.3l1.2-0.6c0,0,1.5-0.7,2.1-0.9c0.6-0.3,1.7-0.8,1.9-1.2c0.4-0.3,1.9-1.4,2.8-2.2c0.9-0.8,2.8-2.9,2.8-2.9l1.3-1.7
		l2.2-3.8C308.4,98.9,308.8,98,308.8,97.5"/>
	<path class="st0" d="M301.8,153.5c-0.9-2.8-1.7-5.4-2.6-8.3c-0.8-2.2-1.4-4.6-2.5-6.7c-0.6-1.3-1-2.8-1.4-4.1
		c-0.3-0.7-0.6-1.3-0.8-2c-1.2-3.5-2.9-6.3-4.6-9.6c-0.1-0.2-0.2-0.3-0.3-0.6c-0.2-0.3-0.3-0.6-0.7-0.8c-0.4-0.2-0.8-0.1-1.5,0
		c-1.4,0.2-3.2,0.3-4,0.3c-0.7,0-3.5,0.2-5.7,0.4L277,122h-1.4H274l-7.2-0.9c-2.6-0.4-8.7-1.9-8.7-1.9l-4.4-1.5l-5.4-1.9l-0.4,0.2
		l-8.5-0.7l-0.3,0.2l-4.9-3.6h-0.6l-3-2.8l-0.1-0.6l-3.3-0.6l-0.3,0.1l-2.8-0.9l-0.3-0.2l-6.3,0.6l-5.7-2.3l-19.6,1l-0.3-0.2
		l-3.8,0.3l-0.4,0.3l-9.7,0.7l-0.3-0.2l-13.8,8.1l-0.2,0.6l-0.6,0.6l-0.3-0.2l-6.9-0.6l-0.4,0.2l-12.2,0.1l-0.3-0.1l-3.5-0.1
		l-1.1-0.6l-12.8,9.9v0.3l-4.5,3.6l-4.6-2.8l-0.3,0.1l-1.9-0.6c0,0-9.4,2.3-9.3,2.4c0.1,0-8.6-1.4-8.6-1.4l-0.6-0.6l-1.7,1.7
		l-3.5,1.7l-0.1,0.3l-6.9,5.3l-9.8,7.2l-11,8.3l-5,3.6l-0.3,2.1l-2.1,4.9l-0.9,4.2l-1.4,8.4l-0.8,3.6l-0.3,4.4l-1.2,9.2L50,211
		l0.6,1.2l0.4,5.5c0,0,0.1,1,0.3,1l0,0l24.5-25.4l8.1-3.2l6.7-0.3l4.1-4.7l0.4-0.9l0.6,0.2l11-1.2l0.6-0.3h4.1l0.6,0.2l1.3-1.7l5-3
		l5.3-3.6l14.9,0.2l0.1,0.3l5.8,0.6l4.5-0.9l8.3-8.5h0.2l6.6-6.3l9.9-1.3l0.4-0.3l0.4,0.4l5.1,2.4l0.4-0.3l4.6-0.6l0.2-0.2l4.3-0.7
		l0.4-0.2l4.7,4l0.3-0.3l9.5-0.2l0.8-0.6l7.7,0.4l0.4,0.1l1.2-0.3l0.2-0.3l3.1-1.4h0.4l3.5-1.7l0.3-0.3l3.9-1.4l0.3-0.4l10.5-4
		l0.1-0.2l1.8-0.6l0.4-0.4l0.6,0.6l3,1.5h0.9l3.4,1.9l0.2-0.3l1-0.6h0.1l1.7-0.8l0.1-0.1l2.4-0.6l6.2,1.7l1.3-0.3l1.1,0.8l4.6,0.7
		l4.5,1.7l2.6-0.2l0.9,0.6l0.7-0.4c0,0,8.8-1.1,13.3-1.5c2.9-0.2,5.8-0.6,8.6-0.8c1.7-0.2,3.2-0.3,5-0.6
		C301.7,154.9,302,154.4,301.8,153.5"/>
	<path class="st0" d="M308.3,199c0-0.6-0.1-1-0.2-1.7c-0.1-1.7-0.2-3.4-0.3-5.1c0-0.6-0.1-1.1-0.1-1.7c-0.1-2.1-0.2-4.2-0.4-6.4
		c-0.3-2.8-0.7-5.3-1.1-8.1c-0.3-2.1-0.7-4.1-1.1-6.2c-0.4-2.1-0.7-4.1-1.2-6.3c-0.6-2.2-0.9-2.5-3.2-2.2c-0.2,0-0.4,0-0.6,0.1
		c-0.8,0.2-2,0.3-2.8,0.4c-4.3,0.6-8.4,0.8-12.8,1.3l-12.6,4.3l-18.1-0.6l-2-0.6v0.3l-5.3,3.9l-0.7,0.1l-4.2,3.9l-0.2,0.6l-10.8,1.4
		l-9.8,7.6h-1l-5.2,3.1l-2.1,0.2l-2,1.7l-0.6-0.4l-10-0.7l-1.7,2v0.3l-8.7,9.4l-0.1,0.6l-0.3,0.1l-11,12.7l-3,0.1l-0.2,0.3l-9.2,1.7
		h-0.7l-0.2,0.4c-0.1,0-14.9,8.3-14.9,8.3l-6.7-0.8l-1.4,0.6l-6.7-0.4l-6.6,7.2l-4,0.8l-2.2-0.1l-2.3,1l-1.4-0.2l0.1,0.3l-8.3,6.4
		l-0.8,0.1l-12.9,10l0.1,0.6l-8.1,19.2l0.3,0.8l-13.5,1.2l-4.3,3.7l-0.4,1.4l6,8.2l4.3,6.6l3.8,4.9L91,302c0,0,0,0.6,0.2,0.6
		c0.1,0.1,0.8,0.1,0.8,0.1s3.6,1.2,3.8,1.2l4.5,1.4c0,0,0,0.2,0.1,0.2l0.4-0.1l7.4,2.9h0.6l0.4,0.6h0.7c0.1,0,1.8,1.2,1.8,1.2
		l3.1-1.7h0.1l1.4-0.9l11.4,2.8l8.3-4.2l18.3-1.8l7.5-12.1c1.2-1.2,3.3-3.4,3.3-3.4h0.3l2.6-2.4V286l4.7-4.3l2.2-2.3l0.6-0.3
		l2.5-2.6l2-2.1l0.6-0.1l-0.6-1.9l2.1-7.8l4.1-1.2l0.2-0.2l1.2-0.3v-0.7l5.5-8.9l0.6-0.2l2.3-4.4l3.8-2.1l0.6-0.6l0.7,0.1l2.2-1.3
		h0.3l4-1.8l0.3-0.6l13.6-6.2l0.8-0.1l0.2-0.7l0.6-0.4l1.4-4.7l4.2-1.8l5-0.6l4.5-3.1l6.4,0.3l0.6,0.6l0.3-0.4l8.9-4v-1.1l2.1-4.1
		l4.4-1.2l0.2-0.3l6.1-1.3l2.3-2.8l0.3-0.1c0,0,1.4-1.3,1.4-1.4l4.1,0.6l0.2,0.2l2.2,0.3l1.4,0.2c0,0,6.1-2.8,8.6-3.9
		c1.1-0.4,2.1-0.7,3.1-1c1.4-0.6,2.8-1,4.2-1.5c0.7-0.2,1.4-0.4,2.1-0.6l2.8-0.6l3.3-0.6l2-0.1c0,0,1-0.1,1.3-0.2
		c0.4-0.1,0.9-0.1,1.3-0.4c0.4-0.4,0.4-0.8,0.6-1.2C308.2,199.7,308.3,199.4,308.3,199"/>
	<path class="st0" d="M308.1,210.7c0-0.6,0.1-1.3-0.3-1.7c-0.4-0.4-0.9-0.6-1.2-0.6c-0.3,0-1.9,0.2-1.9,0.2l-2.6,0.4
		c-0.3,0-0.6,0.1-0.9,0.2c-1.7,0.4-3.1,0.7-4.7,1.1c-1.7,0.6-3.5,1-5.1,1.7c-1.7,0.8-3.6,1.4-5.4,2.2c-0.6,0.3-6.4,3.1-9,4.4
		l-3.4,3.6l-0.1,0.8l-0.4-0.2l-2.1,0.1l-0.1,0.2l-6.9,2.3l0.1,0.8l-0.7,0.7v0.4l-3.2,5.6h-0.4l-0.1,0.6c0,0-0.7,1.1-1.4,2.3
		l-14.6,9.4h-0.3l-2.2,1.8l-1.5,6.1l-1.4,1.3l-5.7,21l0.8,2.4l-8.4,4h-1.3l-1.7,7.3l-0.3,0.2l-2.1,6.6l0.1,0.4l-0.8,5.7l-0.3,0.4
		l0.3,0.6l-8.2,12.7l-0.6,0.2l-2,3.1l-0.1,0.6l-6.9,9.7l-7.3,4.3l0.4,0.6c0,0.1-0.4,2.9-0.4,2.9l0.6,1.1l-1,0.3l-5.2,3.1l-0.6-0.1
		l-7.7,4.6l-0.9,1.4c0,0.1,3,0.4,3,0.4l5,0.4l3.4,0.2l3.9,0.1l1.8,0.1l3,0.1l3-0.1l10.7-1.3l6.4-1.1l4.9-1.3l5.2-1.5l6.7-2.6
		l0.6-0.3l1.9-1.1c0,0,5.4-2.8,7.8-4.7c4.1-3.2,8.4-6.3,12.2-9.9c1.3-1.2,2.6-2.5,3.9-3.8c1.2-1.2,2.4-2.4,3.6-3.6
		c0.2-0.2,0.6-0.4,0.6-0.7c0.4-1,1.2-1.7,1.9-2.4c0.6-0.6,1-1,1.4-1.7c0.8-1.3,2-2.2,3.1-3.3c0.9-0.9,1.7-1.8,2.3-2.8
		c1.3-1.8,2.4-3.7,3.8-5.5c1.7-2.5,3.4-4.9,4.9-7.4c1.5-2.8,2.9-5.5,4.5-8.3c1.3-2.3,2.8-4.6,3.8-7.2c1.7-4,3.4-8.2,5-12.1
		c1.7-4.3,3-8.8,4.2-13.3c0.9-3.3,1.4-6.8,2.6-10c0.2-0.4,0.2-0.9,0.3-1.3c0.6-2.8,0.9-5.5,1.4-8.3c0.4-2.6,0.8-5.2,1.2-7.8
		c0.2-1.8,0.6-3.5,0.7-5.3c0.2-2.5,0.3-5,0.4-7.4c0-0.3,0-0.8,0-0.8S308.1,211.1,308.1,210.7"/>
</g>
</svg>
