<?xml version="1.0" encoding="utf-8"?>
<!-- Generator: Adobe Illustrator 24.0.1, SVG Export Plug-In . SVG Version: 6.00 Build 0)  -->
<svg version="1.1" id="Layer_2_1_" xmlns="http://www.w3.org/2000/svg" xmlns:xlink="http://www.w3.org/1999/xlink" x="0px" y="0px"
	 viewBox="0 0 400 400" style="enable-background:new 0 0 400 400;" xml:space="preserve">
<style type="text/css">
	.st0{fill:#FFFFFF;}
	.st1{fill:#002B5C;}
	.st2{fill:#F89F1B;}
	.st3{fill:#00471A;}
</style>
<g id="Layer_2_2_">
	<path class="st0" d="M151.1,217.3l56.2-128.5H378l-30.9,70.8H202.9c-6.3,14.2-37.2,85.2-40.8,93.5v3.4c0,29.8-25.2,68.4-69.9,68.4
		c-38.6,0-69.9-31.4-69.9-69.9s31.4-69.9,69.9-69.9C116.4,185,139.3,198,151.1,217.3"/>
	<path class="st1" d="M26.4,257.9c0.8,17.3,8.3,32.9,20,44.2c12.4-11,20.5-26.6,21.4-44.2H26.4z"/>
	<path class="st2" d="M73.5,257.9c-0.9,19-9.5,36.1-22.8,48.1c10.6,8.6,24,14,38.6,14.6v-62.7H73.5L73.5,257.9z"/>
	<path class="st1" d="M26.3,252.1h41.4c-0.7-17.8-8.9-33.6-21.4-44.6C34.7,219,27.1,234.7,26.3,252.1"/>
	<path class="st2" d="M50.8,203.7c13.4,12,22,29.2,22.8,48.4h15.7V189C74.7,189.7,61.4,195.1,50.8,203.7"/>
	<path class="st1" d="M157.9,257.9h-41.3c0.9,17.5,8.9,33.3,21.4,44.2C149.6,290.8,157.1,275.3,157.9,257.9"/>
	<path class="st3" d="M110.8,257.9H95v62.7c14.6-0.7,27.9-6.1,38.6-14.6C120.3,294,111.7,277,110.8,257.9"/>
	<path class="st3" d="M133.6,203.7c-10.6-8.7-24-14-38.6-14.6v63h15.7C111.6,232.9,120.1,215.7,133.6,203.7"/>
	<path class="st1" d="M210,92.9l-58.5,133.9c-3.5-7.2-8.1-13.7-13.7-19.1c-12.5,11.1-20.6,26.8-21.4,44.6h41.3l42.2-96.9h123.6
		l27.2-62.5H210z"/>
	<polygon class="st3" points="344.4,155.3 371.6,92.9 360,92.9 332.8,155.3 	"/>
</g>
</svg>
