<?xml version="1.0" encoding="utf-8"?>
<svg version="1.1" xmlns="http://www.w3.org/2000/svg" xmlns:xlink="http://www.w3.org/1999/xlink" x="0px" y="0px"
	 viewBox="0 0 481.8 57.9" style="enable-background:new 0 0 481.8 57.9;" xml:space="preserve">
<g>
	<path fill="#FFFFFF" d="M440,24.1l-2.2-5c4.5-2.7,9.8-4.1,15-4c10.3,0,15.3,5.7,15.3,16.2v25.5h-5l-0.5-4.6c-4,3.4-9,5.3-14.2,5.4
		c-7.9,0-12.8-4.8-12.8-11.9c0-7.8,5-12.7,15.1-12.7h11.7v-1.3c0-7.3-3.2-11.3-10.4-11.3C447.7,20.7,443.6,21.9,440,24.1z
		 M462.3,38.1h-11.4c-6.3,0-9.5,2.6-9.5,7.1s3.4,7.2,8.4,7.2c4.6-0.1,9.1-1.9,12.5-5V38.1z M326.2,56.9l-7.4-43.8l-15.6,43.8h-4.5
		l-15.5-44l-7.5,44h-6.2l9.8-55.2h6.1L301,47.6l15.6-45.9h6l9.8,55.2H326.2z M370.4,54c-4.4,2.5-9.4,3.8-14.4,3.7
		c-12.2,0-20.1-8.7-20.1-21.3c0-11.9,7.8-21.3,18.7-21.3s17.3,8.4,17.3,19c0,1.5-0.1,3-0.2,4.5h-29.9c1,8.3,6.3,13.8,14.6,13.8
		c4.1-0.1,8.2-1.1,11.9-3L370.4,54z M365.9,33.5v-0.3c0-7.2-4.2-12.8-11.3-12.8S343,26,341.9,33.5L365.9,33.5z M414,0v56.8h-5
		l-0.5-4.2c-3.7,3.3-8.6,5.1-13.5,5.1c-11,0-17.2-9.6-17.2-21.2c0-11.9,7-21.4,18.2-21.4c4.4,0,8.7,1.4,12.2,4.1V0L414,0z
		 M396.1,52.3c4.4-0.1,8.7-1.8,12-4.8V24.9c-3.1-2.8-7-4.4-11.2-4.5c-8.3,0-13.2,6.8-13.2,16.1C383.6,45.2,388,52.3,396.1,52.3z
		 M428.6,15.3v41.6h-5.9V15.3L428.6,15.3z M38.1,22.2c-0.6,3.6-1.6,7.6-2.1,10l-6,24.7H15.9L0,1.7h12.9l7.5,27.6
		c0.5,2.4,1.6,6.6,2.4,10.1l9.1-37.7h12.4l9.2,37.7c0.9-3.5,1.9-7.7,2.4-10.1l7.3-27.6h12.9L60.4,56.9H46.3l-6-24.7
		C39.7,29.9,38.8,25.8,38.1,22.2z M150.8,15.3H161l0.8,4.3c1.8-1.7,3.9-3,6.1-4c2.2-0.9,4.6-1.3,6.9-1.3c4.3,0,7.6,1.4,10.1,4.3
		s3.6,7,3.6,12.3v25.9h-11.7V31.7c0.1-1.9-0.4-3.8-1.6-5.4c-1-1.2-2.7-1.7-5-1.7c-2.9,0.1-5.6,1.2-7.7,3.1v29.2h-11.7V15.3z
		 M228.5,45.7l3.6,8c-4,2.5-9.2,4.2-16.2,4.2c-12.4,0-21.1-9.1-21.1-21.8c0-12.1,8.1-21.7,20.1-21.7c11.5,0,18.7,8.1,18.7,20.4
		c0,1.6-0.1,3.7-0.1,4.9h-27c1,5.8,4.9,8.5,11.4,8.5C221.5,48.2,225.2,47.3,228.5,45.7L228.5,45.7z M206.4,32.1h16.4v-0.4
		c0-2.2-0.7-4.3-2.1-5.9c-1.4-1.6-3.5-2.4-5.6-2.4c-2.2,0-4.3,0.8-5.8,2.4C207.7,27.5,206.7,29.7,206.4,32.1z M144.1,15.2
		c-0.5-0.1-1-0.1-1.5-0.1c-4.8,0-9.5,2-12.9,5.4l-0.8-5.3h-10.2v41.6h11.7V28.4c2.9-1.8,6.3-2.7,9.7-2.8c1.3,0,2.7,0.1,4,0.3
		L144.1,15.2z M265.2,26l0.2,0l1.8-10.4c-0.2-0.1-0.4-0.1-0.6-0.2c-1-0.2-2-0.4-3-0.4c-4.8,0-9.5,2-12.9,5.4l-0.8-5.3h-10.2v41.6
		h11.7V28.4c2.9-1.8,6.3-2.7,9.7-2.8C262.6,25.7,263.9,25.8,265.2,26z M425.5,0c-2.1,0-3.8,1.7-3.8,3.8s1.7,3.8,3.8,3.8
		s3.8-1.7,3.8-3.8c0,0,0,0,0,0C429.3,1.7,427.6,0,425.5,0C425.5,0,425.5,0,425.5,0z M94,14.3c-5.5,0-11,1.2-16,3.4l2.2,9.2
		C84,25.2,88,24.3,92,24.3c5.1,0,7.8,2,7.8,7.4v0.4h-8C80.2,32.1,75,36.7,75,45.1c0,7.6,5.4,12.8,13.6,12.8c5.4,0,8.8-1.9,12.5-5
		l0.7,3.9h9.6V31C111.5,20.3,105.2,14.3,94,14.3z M99.8,46.4c-2.2,1.6-4.8,2.5-7.5,2.7c-3.5,0-5.6-2-5.6-4.8s2-4.7,5.9-4.7h7.2V46.4
		z"/>
	<path fill="#FFFFFF" d="M476.3,0.4h-1.2V0h2.7v0.4h-1.2v3.1h-0.4V0.4z"/>
	<path fill="#FFFFFF" d="M481.3,3.5V0.8l-1.1,2.1h-0.4l-1.1-2.1v2.7h-0.4V0h0.4l1.3,2.5l1.3-2.5h0.4v3.5L481.3,3.5z"/>
</g>
</svg>
